PathFileType   4   (X/Y/Z)																																																																																																																							
DataRate  CameraRate  NumFrames  NumMarkers  Units  OrigDataRate  OrigDataStartFrame  OrigNumFrames  																																																																																																																							
  120.0      120.0        5         39         mm      120.0          14        109																																																																																																																							
Frame#      Time	midhip		hip_r		hip_l		knee_r		knee_l		ankle_r		ankle_l		midasis		asis_r		asis_l		psis_r		psis_l		epicondLat_r		epicondLat_l		epicondMed_r		epicondMed_l		malleolusLat_r		malleolusLat_l		malleolusMedv_r		malleolusMedv_l		heel_r		heel_l		sternalnotch		xyphoidprocess		neck		subclavicle_r		subclavicle_l		toe_r		toe_l		thighwand_r		thighwand_l		upperleg1_r		upperleg1_l		upperleg2_r		upperleg2_l		shankwand_r		shankwand_l		lowerleg1_r		lowerleg1_l		
              X1          Y1          Z1          X2          Y2          Z2          X3          Y3          Z3          X4          Y4          Z4          X5          Y5          Z5          X6          Y6          Z6          X7          Y7          Z7          X8          Y8          Z8          X9          Y9          Z9          X10          Y10          Z10          X11          Y11          Z11          X12          Y12          Z12          X13          Y13          Z13          X14          Y14          Z14          X15          Y15          Z15          X16          Y16          Z16          X17          Y17          Z17          X18          Y18          Z18          X19          Y19          Z19          X20          Y20          Z20          X21          Y21          Z21          X22          Y22          Z22          X23          Y23          Z23          X24          Y24          Z24          X25          Y25          Z25          X26          Y26          Z26          X27          Y27          Z27          X28          Y28          Z28          X29          Y29          Z29          X30          Y30          Z30          X31          Y31          Z31          X32          Y32          Z32          X33          Y33          Z33          X34          Y34          Z34          X35          Y35          Z35          X36          Y36          Z36          X37          Y37          Z37          X38          Y38          Z38          X39          Y39          Z39          																																																																																																																							

	14	1.13333	1471.612	881.561	-251.838	1468.548	879.539	-176.713	1474.676	883.583	-326.963	1442.754	469.715	-132.096	1431.976	460.905	-354.722	1405.578	69.856	-128.86	1382.763	71.197	-364.938	1565.979	959.508	-245.89	1561.119	956.301	-126.746	1570.839	962.715	-365.035	1382.032	1018.062	-220.325	1388.118	1016.941	-305.454	1451.823	475.405	-74.584	1440.01	463.861	-412.087	1427.567	476.156	-183.448	1427.597	465.656	-300.498	1390.95	71.517	-91.668	1365.031	74.343	-399.532	1415.544	83.861	-158.295	1391.538	83.686	-337.148	1342.739	42.558	-143.847	1317.53	42.925	-352.069	1489.184	1370.291	-233.892	1570.971	1206.459	-245.221	1376.281	1436.877	-238.694	1498.384	1358.841	-181.545	1512.466	1365.515	-288.873	1525.776	39.237	-99.229	1500.542	41.146	-401.883	1506.453	590.999	-9.285	1596.336	552.911	-341.385	1522.161	650.562	-82.088	1534.943	618.535	-381.355	1513.692	563.542	-96.807	1508.35	535.256	-385.158	1417.711	204.828	-5.411	1405.964	212.029	-479.317	1406.381	172.268	-78.068	1384.952	173.894	-410.396
	15	1.14167	1471.608	881.545	-251.849	1468.546	879.525	-176.724	1474.669	883.565	-326.974	1442.812	469.705	-132.183	1432.143	460.932	-354.778	1405.628	69.818	-128.87	1382.801	71.168	-364.963	1565.958	959.513	-245.907	1561.104	956.311	-126.812	1570.811	962.715	-365.002	1381.897	1018.032	-220.365	1388.075	1016.938	-305.484	1451.828	475.39	-74.663	1440.131	463.903	-412.149	1427.848	476.119	-183.715	1427.543	465.721	-300.376	1390.967	71.49	-91.691	1365.04	74.32	-399.54	1415.596	83.902	-158.271	1391.532	83.822	-337.24	1342.761	42.562	-143.86	1317.522	42.898	-352.06	1489.05	1370.246	-233.936	1570.97	1206.465	-245.036	1375.967	1436.791	-238.816	1498.411	1358.954	-181.513	1512.18	1365.339	-289.044	1525.762	39.207	-99.288	1500.538	41.127	-401.842	1506.465	591.016	-9.279	1596.297	552.915	-341.38	1522.251	650.613	-82.099	1534.945	618.502	-381.334	1513.813	563.366	-96.924	1508.305	535.246	-385.094	1417.687	204.836	-5.405	1406.006	212.07	-479.326	1406.299	172.266	-78.034	1385.002	173.776	-410.357
	16	1.15	1471.589	881.536	-251.825	1468.531	879.525	-176.7	1474.647	883.546	-326.951	1442.847	469.719	-132.254	1432.339	460.957	-354.842	1405.672	69.801	-128.872	1382.842	71.15	-364.99	1565.919	959.529	-245.899	1561.073	956.343	-126.841	1570.765	962.715	-364.957	1381.783	1017.988	-220.388	1388.029	1016.933	-305.52	1451.826	475.395	-74.726	1440.271	463.95	-412.22	1427.797	476.292	-183.868	1427.45	465.765	-300.459	1390.988	71.48	-91.703	1365.047	74.31	-399.55	1415.685	83.956	-158.193	1391.537	83.904	-337.255	1342.785	42.569	-143.885	1317.518	42.887	-352.054	1488.912	1370.263	-233.927	1571	1206.547	-244.746	1375.713	1436.703	-238.95	1498.391	1359.124	-181.498	1511.936	1365.232	-289.063	1525.747	39.2	-99.419	1500.517	41.129	-401.805	1506.472	591.036	-9.28	1596.275	552.911	-341.364	1522.39	650.668	-82.08	1534.945	618.476	-381.305	1513.825	563.295	-96.987	1508.292	535.342	-385.114	1417.67	204.842	-5.418	1406.034	212.097	-479.321	1406.124	172.114	-78.058	1385.135	173.72	-410.394
	17	1.15833	1471.562	881.533	-251.792	1468.504	879.537	-176.666	1474.62	883.529	-326.917	1442.864	469.755	-132.297	1432.516	460.971	-354.906	1405.704	69.804	-128.862	1382.875	71.148	-365.02	1565.87	959.553	-245.88	1561.026	956.391	-126.847	1570.715	962.716	-364.913	1381.701	1017.938	-220.398	1387.988	1016.926	-305.556	1451.828	475.423	-74.766	1440.396	463.987	-412.289	1427.742	476.359	-183.892	1427.395	465.837	-300.502	1391.011	71.488	-91.696	1365.048	74.315	-399.562	1415.747	83.953	-158.144	1391.595	83.969	-337.23	1342.801	42.582	-143.913	1317.522	42.89	-352.058	1488.815	1370.28	-233.9	1571.038	1206.615	-244.473	1375.515	1436.649	-239.099	1498.385	1359.269	-181.51	1511.76	1365.145	-289.006	1525.724	39.223	-99.52	1500.491	41.14	-401.777	1506.467	591.066	-9.293	1596.281	552.912	-341.366	1522.372	650.677	-82.033	1534.94	618.489	-381.306	1513.793	563.306	-96.982	1508.28	535.444	-385.134	1417.663	204.843	-5.444	1406.05	212.097	-479.306	1406.112	171.966	-78.01	1385.248	173.777	-410.404
	18	1.16667	1471.539	881.532	-251.772	1468.473	879.549	-176.646	1474.606	883.515	-326.898	1442.881	469.809	-132.31	1432.611	460.974	-354.951	1405.72	69.822	-128.848	1382.889	71.161	-365.039	1565.824	959.581	-245.863	1560.966	956.439	-126.84	1570.683	962.723	-364.887	1381.635	1017.885	-220.39	1387.945	1016.918	-305.604	1451.854	475.474	-74.781	1440.464	464.004	-412.337	1427.839	476.295	-183.891	1427.433	465.871	-300.471	1391.033	71.508	-91.68	1365.046	74.331	-399.572	1415.697	83.966	-158.142	1391.608	84.016	-337.189	1342.808	42.601	-143.938	1317.539	42.915	-352.072	1488.749	1370.316	-233.951	1571.006	1206.661	-244.402	1375.356	1436.69	-239.146	1498.386	1359.379	-181.635	1511.628	1365.114	-288.996	1525.685	39.252	-99.596	1500.479	41.156	-401.759	1506.453	591.114	-9.323	1596.316	552.929	-341.401	1522.378	650.704	-82.075	1534.934	618.524	-381.327	1513.825	563.295	-96.987	1508.275	535.481	-385.142	1417.671	204.849	-5.476	1406.047	212.062	-479.306	1406.216	172.011	-77.927	1385.314	173.912	-410.446
